<?xml version="1.0" encoding="UTF-8"?>
<svg id="Layer_1" xmlns="http://www.w3.org/2000/svg" xmlns:xlink="http://www.w3.org/1999/xlink" version="1.1" viewBox="0 0 50 90">
  <!-- Generator: Adobe Illustrator 29.3.0, SVG Export Plug-In . SVG Version: 2.1.0 Build 146)  -->
  <defs>
    <style>
      .st0 {
        fill: #5fe4b6;
      }
    </style>
  </defs>
  <path class="st0" d="M5.1,67.2c-.6.6-1.3.9-2.1.9s-1.5-.3-2.1-.9S0,65.9,0,65.1s.3-1.5.9-2.1c.6-.6,1.3-.9,2.1-.9s.4,0,.6,0,.4,0,.6.2.3.2.5.3c.2,0,.3.2.4.4.7.7,1,1.7.8,2.7,0,.2,0,.4-.2.6s-.2.3-.3.5c0,0,0,.2-.3.3h0ZM19.8,77.6c-1.2-1.2-3-1.2-4.2,0-.6.6-.9,1.3-.9,2.1s.3,1.5.9,2.1c1.2,1.2,3,1.2,4.2,0,1.1-1.1,1.1-3,0-4.2ZM12.5,70.3c-1.2-1.2-3-1.2-4.2,0s-.9,1.3-.9,2.1.3,1.5.9,2.1c1.2,1.2,3,1.2,4.2,0,1.1-1.2,1.1-3,0-4.2ZM25.6,89.9c.2,0,.4,0,.6-.2.2,0,.4-.2.5-.3.2,0,.3-.2.5-.4,1.1-1.1,1.1-3.1,0-4.2s-.3-.3-.5-.4-.3-.2-.5-.3c-.2,0-.4,0-.6-.2h-1.2c-.2,0-.4,0-.6.2-.2,0-.4.2-.5.3-.2,0-.3.2-.5.4,0,0-.3.3-.4.4,0,.2-.2.3-.3.5s0,.4-.2.6v.6c0,.8.3,1.5.9,2.1,0,0,.3.3.5.4s.3.2.5.3c.2,0,.4,0,.6.2h1.3-.1ZM34.4,77.6c-1.2-1.2-3-1.2-4.2,0s-.9,1.3-.9,2.1.3,1.5.9,2.1c1.2,1.2,3,1.2,4.2,0,1.2-1.1,1.2-3,0-4.2ZM41.7,70.3c-1.2-1.2-3-1.2-4.2,0-.6.6-.9,1.3-.9,2.1s.3,1.5.9,2.1c1.2,1.2,3,1.2,4.2,0s1.2-3,0-4.2ZM49.4,66.7c0-.2.2-.3.3-.5s0-.4.2-.6c.2-1,0-2-.8-2.7s-1.3-.9-2.1-.9-.4,0-.6,0-.4,0-.6.2-.3.2-.5.3c-.2,0-.3.2-.4.4-.6.6-.9,1.3-.9,2.1s.3,1.5.9,2.1,1.3.9,2.1.9,1.5-.3,2.1-.9c0,0,.2-.3.3-.5h0ZM28,12.8c0-1.6-1.3-3-3-3s-3,1.3-3,3,1.3,3,3,3,3-1.3,3-3ZM28,22.7c0-1.6-1.3-3-3-3s-3,1.3-3,3,1.3,3,3,3,3-1.4,3-3ZM28,32.6c0-1.6-1.3-3-3-3s-3,1.3-3,3,1.3,3,3,3,3-1.4,3-3ZM28,3c0-1.6-1.3-3-3-3s-3,1.3-3,3,1.3,3,3,3c1.6,0,3-1.4,3-3ZM28,52.3c0-1.6-1.3-3-3-3s-3,1.3-3,3,1.3,3,3,3,3-1.3,3-3ZM25,65.2c1.6,0,3-1.3,3-3s-1.3-3-3-3-3,1.3-3,3,1.4,3,3,3ZM22,72.1c0,1.6,1.3,3,3,3s3-1.3,3-3-1.3-3-3-3-3,1.3-3,3ZM28,42.4c0-1.6-1.3-3-3-3s-3,1.3-3,3,1.3,3,3,3,3-1.3,3-3Z"/>
</svg>