<?xml version="1.0" encoding="UTF-8"?>
<svg id="Layer_1" xmlns="http://www.w3.org/2000/svg" version="1.1" viewBox="0 0 45.8 45.8">
  <!-- Generator: Adobe Illustrator 29.3.0, SVG Export Plug-In . SVG Version: 2.1.0 Build 146)  -->
  <defs>
    <style>
      .st0 {
        fill: #222;
      }
    </style>
  </defs>
  <path class="st0" d="M44.2,0c-.4,0-.8.2-1.1.5l-20.2,20.2L2.7.5c-.3-.3-.7-.5-1.1-.5S.8.2.5.4c-.3.3-.5.7-.5,1.1s.2.8.5,1.1l20.2,20.2L.5,43.1c-.6.6-.6,1.6,0,2.2.3.3.7.5,1.1.5s.8-.2,1.1-.5l20.2-20.2,20.2,20.2c.6.6,1.6.6,2.2,0,.6-.6.6-1.6,0-2.2l-20.2-20.2L45.3,2.7c.3-.3.5-.7.5-1.1s-.2-.8-.5-1.1-.7-.5-1.1-.5h0Z"/>
</svg>