<?xml version="1.0" encoding="UTF-8"?>
<svg id="Layer_1" xmlns="http://www.w3.org/2000/svg" version="1.1" viewBox="0 0 275 116.5">
  <!-- Generator: Adobe Illustrator 29.3.0, SVG Export Plug-In . SVG Version: 2.1.0 Build 146)  -->
  <defs>
    <style>
      .st0 {
        fill: #5fe4b6;
      }
    </style>
  </defs>
  <g>
    <path class="st0" d="M125.8,58.5c2.2.5,4.4,1,6.6,1.5-.6-5.2-1.3-10.4-1.9-15.6-1.6,4.7-3.1,9.4-4.7,14.1h0Z"/>
    <path class="st0" d="M184.9,46.7c-.8-.2-1.6-.3-2.4-.5v18.6c.8,0,1.6.2,2.4.2,1.2,0,2.1-.3,2.7-1.2s.9-2.6.9-5.2v-5.6c0-1.8-.3-3.2-.8-4.3-.5-1.1-1.5-1.8-2.9-2h0Z"/>
    <path class="st0" d="M262.4,46.2c-2.3.6-4.7,1.2-7.3,1.7-5.5,1.1-11.4,1.4-17,.5-10.3-1.4-18.6-8.1-26.9-12.8-5.4-3.1-11.8-5.5-17.8-6.5-8.9-1.6-16.2-.6-25.1-.5-9.7.1-20,0-29.2-3.3-11.2-4.2-21.1-11.4-31.7-16C87.4,1,65.7-3,44.1,2.5c-10.5,2.4-23.1,6.6-32.7,9.9C6.9,14.2.7,15.7,0,19.5h0c.1,3,3,5.3,5.1,7.7,3.4,3.6,7.1,7.2,9.5,11.6,3.3,5.8,4.6,11.1,6.6,18.5,1.4,5.4,2.4,10.8,2.8,16.4.7,7.6-.9,15.8-1.4,23.1-.8,8.1,5.2,4.9,10.6,2.2,9.8-5.4,21.2-11.9,32.6-14.6,22.8-5.7,44.9,2.9,66,8.8,10.3,2.5,21.9,2.9,32.3,0,7.9-2.1,15.1-6.1,23.4-7.8,10.8-2.6,22.7-1,33.4-3.9,15.4-4.3,31.4-11.7,44-22.4,5.3-4.5,9-9,10-11.8,1.9-6.2-8.4-2.1-12.4-1.2h0ZM39.7,77.8c-2.1-16.7-4.2-33.3-6.3-50,8.7-3,17.5-5.3,26.4-7,.4,3,.8,6,1.1,9-5.8,1.2-11.5,2.7-17.2,4.5.5,3.7.9,7.4,1.4,11.2,4.2-1.4,8.5-2.6,12.7-3.7.3,2.7.7,5.5,1,8.2-4.2,1.2-8.5,2.5-12.7,3.9.5,3.7.9,7.4,1.4,11.2,5.7-2,11.3-3.8,17.1-5.4.4,3,.8,5.9,1.1,8.9-8.8,2.6-17.5,5.7-26.1,9.4h0ZM80.1,66.7c-2.7.2-5.4.5-8.2.9.4-12.6.8-24.5,1.1-37.1-2.9.1-5.8-.5-8.7-.2,0-3,.2-6,.3-9,8.5-.6,17,1,25.5,1.4,0,2.8-.2,5.7-.2,8.5-2.9-.1-5.8-.1-8.7-.1-.4,12.4-.7,23.2-1.1,35.6h0ZM105.5,69.7c.7-5.9,1.3-11.7,1.9-17.6-3.2-.5-6.4-.9-9.6-1.3-.7,6-1.3,11.2-2,17.2-2.4-.2-4.8-.3-7.2-.3,1.6-14.8,3.3-28.8,4.9-43.6,2.4.3,4.7,1.3,7.1,2-.7,6-1.3,11.3-2,17.3,3.2.4,6.4.9,9.6,1.5.7-5.9,1.3-10.1,1.9-16,2.4.5,4.7,1.9,7.1,2.5-1.5,13.9-3.1,26.1-4.6,40-2.4-.3-4.8-1.4-7.2-1.7h0ZM134.1,75.2c-.3-2.6-.7-5.9-1-8.5-3.1-.7-6.1-1.3-9.2-1.9-.8,2.4-1.6,5.7-2.4,8.1-2.1-.3-3.3-.7-5.4-.9,4.3-12.8,7.8-25.8,11.8-37.8,2.2.7,4.5,1.4,6.7,2.1,1.9,13.5,3.8,26.6,5.8,39.4-2.1-.4-4.2,0-6.3-.4h0ZM161.8,74.1c-3.9-7-7.9-11.8-11.9-19.3.8,7.1,1.5,13.3,2.3,20.4-2.1-.1-4.2.6-6.4.4-1.4-12.5-2.7-25-4.1-37.5,2,.4,4.1.7,6.1,1.1,4,7.7,9.4,15.8,13.4,23-.8-6.8-3-16.8-3.7-23.6,2.2.4,4.3-.8,6.5-.4,1.3,11.5,2.5,23,3.8,34.5-2,0-4,1.3-6,1.2h0ZM171.3,54.8c-1.1-.3-2.3-3-3.5-3.3,1-5.1,2.1-7.7,3.1-12.6,1.6.5,3.3,1,4.9,1.5-1.5,4.7-3,9.5-4.5,14.4ZM192.8,60.2c0,3.3-.7,5.8-2,7.7-1.4,1.8-3.1,2.8-5.4,2.7-2.4,0-4.8.5-7.3.2v-30.5c2.9,0,4.8.5,7.3,1.1,2.3.5,4.1,1.7,5.4,3.7,1.3,2,2,4.5,2,7.9v7.3h0ZM207.9,53.4c-2.7.4-5.4-1.9-8.1-1.9v5c2,0,4,.5,6,.3v4.1c-2,.3-4-.2-6,0v4.1c2.7-.3,5-.5,8.1-.6v4.5c-4.1,1.1-8.3,1-12.4,1.4v-24.5c4.1.4,7.8,2.7,12.4,3.2v4.5h0ZM220.9,67.3c-1.4-.5-4.9,1.1-6.2.5-1.9-7-3-12-5-18.6,1.5.5,4.2.9,5.5,1.2,1.2,4.6,1.7,7.7,2.9,12.5,1-4,2-6.5,2.9-10.8,1.3.2,2.6.4,3.9.5-2,8.8-3,10.9-4.1,14.8h0Z"/>
  </g>
  <g>
    <path class="st0" d="M52.6,107.3v-.2c0-1.7-.7-2.5-2-2.5s-1,.2-1.4.5c-.4.3-.6.9-.6,1.6v5c0,.8.2,1.3.6,1.7.4.3.8.5,1.4.5s1.2-.2,1.5-.6.5-1.1.5-2.1v-.2h2.7c0,3.7-1.6,5.5-4.7,5.5s-2.5-.4-3.4-1.4c-.9-.9-1.3-2.1-1.3-3.5v-4.8c0-1.4.4-2.6,1.3-3.5.9-.9,2-1.4,3.4-1.4s2.7.5,3.5,1.4,1.2,2.2,1.2,3.9c0,0-2.7,0-2.7,0Z"/>
    <path class="st0" d="M61.6,116.5c-1.4,0-2.5-.4-3.4-1.4s-1.3-2.1-1.3-3.5v-4.8c0-1.4.4-2.6,1.3-3.5.9-.9,2-1.4,3.4-1.4s2.5.5,3.4,1.4,1.3,2.1,1.3,3.5v4.8c0,1.4-.4,2.6-1.3,3.5-.9.9-2,1.4-3.4,1.4ZM61.6,113.8c.5,0,1-.2,1.4-.5s.6-.9.6-1.6v-5c0-.8-.2-1.3-.5-1.6s-.8-.5-1.4-.5-1,.2-1.4.5c-.4.3-.6.9-.6,1.6v5c0,.7.2,1.3.5,1.6s.8.5,1.4.5Z"/>
    <path class="st0" d="M73,116.3h-4.6v-14.1h4.6c1.4,0,2.6.4,3.4,1.3s1.3,2.2,1.3,3.8v3.7c0,1.7-.4,2.9-1.3,3.9s-2,1.4-3.4,1.4ZM72.6,104.8h-1.5v8.8h1.5c.8,0,1.3-.2,1.7-.7s.6-1.3.6-2.6v-2.7c0-.9-.2-1.6-.5-2.1-.3-.5-.9-.8-1.8-.8Z"/>
    <path class="st0" d="M87.7,102.2v2.7h-5.1v3.2h3.8v2.4h-3.8v3.2h5.1v2.6h-7.8v-14.1h7.8Z"/>
    <path class="st0" d="M101.8,102.2v2.7h-2.9v11.4h-2.7v-11.4h-2.9v-2.7h8.6Z"/>
    <path class="st0" d="M105.9,110.4v5.8h-2.7v-14.1h2.7v5.9h3.7v-5.9h2.7v14.1h-2.7v-5.8h-3.7Z"/>
    <path class="st0" d="M122.8,102.2v2.7h-5.1v3.2h3.8v2.4h-3.8v3.2h5.1v2.6h-7.8v-14.1h7.8Z"/>
    <path class="st0" d="M132,116.3h-2.7v-14.1h4.4c1.4,0,2.6.4,3.4,1.3s1.3,2.2,1.3,3.8v.6c0,1.6-.4,2.9-1.3,3.7-.9.9-2,1.3-3.4,1.3h-1.6v3.4h0ZM133.3,104.8h-1.4v5.5h1.4c.7,0,1.2-.2,1.7-.6s.6-1,.6-1.9v-.5c0-1.7-.8-2.5-2.3-2.5h0Z"/>
    <path class="st0" d="M147.7,113.6v2.6h-7.4v-14.1h2.7v11.5h4.6Z"/>
    <path class="st0" d="M156.4,116.3l-.7-2.8h-4.1l-.8,2.8h-2.8l4.1-14.1h3l4,14.1h-2.8ZM153.7,105.6l-1.5,5.5h2.9l-1.4-5.5Z"/>
    <path class="st0" d="M162.2,116.3v-5.1l-3.9-9h2.9l2.5,6,2.5-6h2.8l-4,9v5.1h-2.7Z"/>
    <path class="st0" d="M174,109.1h4.7v2.6c0,1.4-.4,2.6-1.3,3.5s-2,1.3-3.4,1.3-2.5-.4-3.4-1.3-1.3-2.1-1.3-3.5v-4.8c0-1.4.4-2.6,1.3-3.5.9-.9,2-1.4,3.4-1.4s2.5.4,3.4,1.3c.9.9,1.3,2,1.4,3.4h-2.7c0-1.4-.6-2.1-1.9-2.1s-1.1.2-1.5.6-.5,1-.5,1.9v4.6c0,.7.2,1.2.5,1.6s.8.5,1.4.5,1-.2,1.4-.5.6-.9.6-1.6v-.2h-1.9v-2.4h0Z"/>
    <path class="st0" d="M183.6,116.3h-2.7v-14.1h4.4c1.4,0,2.6.4,3.4,1.3s1.3,2.2,1.3,3.8v.4c0,1.1-.2,2-.6,2.7-.4.7-1,1.3-1.8,1.6l2.4,4.3h-3l-1.9-3.6h-1.4v3.6ZM184.9,104.8h-1.4v5.2h1.4c1.5,0,2.3-.8,2.3-2.4v-.4c0-1.6-.8-2.4-2.3-2.4Z"/>
    <path class="st0" d="M196.2,116.5c-1.4,0-2.5-.4-3.4-1.4s-1.3-2.1-1.3-3.5v-4.8c0-1.4.4-2.6,1.3-3.5.9-.9,2-1.4,3.4-1.4s2.5.5,3.4,1.4,1.3,2.1,1.3,3.5v4.8c0,1.4-.4,2.6-1.3,3.5s-2,1.4-3.4,1.4ZM196.2,113.8c.6,0,1-.2,1.4-.5s.6-.9.6-1.6v-5c0-.8-.2-1.3-.6-1.6-.4-.3-.8-.5-1.4-.5s-1,.2-1.4.5c-.4.3-.6.9-.6,1.6v5c0,.7.2,1.3.6,1.6.4.3.8.5,1.4.5Z"/>
    <path class="st0" d="M209.5,111.7v-9.5h2.7v9.4c0,1.5-.4,2.7-1.3,3.5-.9.9-2,1.3-3.4,1.3s-2.5-.4-3.4-1.3c-.9-.9-1.3-2.1-1.3-3.6v-9.4h2.7v9.5c0,.7.2,1.3.5,1.6.4.3.8.5,1.4.5s1-.2,1.4-.5.6-.9.6-1.6Z"/>
    <path class="st0" d="M223.9,102.2v14.1h-2.6l-4.1-8.2v8.2h-2.7v-14.1h2.6l4.1,8.2v-8.2h2.8Z"/>
    <path class="st0" d="M231,116.3h-4.6v-14.1h4.6c1.4,0,2.6.4,3.4,1.3s1.3,2.2,1.3,3.8v3.7c0,1.7-.4,2.9-1.3,3.9s-2,1.4-3.4,1.4ZM230.7,104.8h-1.5v8.8h1.5c.8,0,1.3-.2,1.7-.7s.6-1.3.6-2.6v-2.7c0-.9-.2-1.6-.5-2.1s-.9-.8-1.8-.8Z"/>
  </g>
</svg>