<?xml version="1.0" encoding="UTF-8"?>
<svg id="Layer_1" xmlns="http://www.w3.org/2000/svg" xmlns:xlink="http://www.w3.org/1999/xlink" version="1.1" viewBox="0 0 300 104.6">
  <!-- Generator: Adobe Illustrator 29.3.0, SVG Export Plug-In . SVG Version: 2.1.0 Build 146)  -->
  <defs>
    <style>
      .st0 {
        fill: #5fe4b6;
      }

      .st1 {
        fill: #fff;
      }
    </style>
  </defs>
  <path class="st0" d="M44.7,4.4v8.5h-10.8v5.4h8.2v7.7h-8.2v5.1h10.8v8.5h-19.6V4.4h19.6Z"/>
  <path class="st1" d="M67.9,4.4v8.5h-6v26.7h-8.8V12.9h-6V4.4h20.8Z"/>
  <path class="st1" d="M80.5,26v13.6h-8.8V4.4h8.8v13.9h5.4V4.4h8.8v35.2h-8.8v-13.6s-5.4,0-5.4,0Z"/>
  <path class="st1" d="M116.3,39.6l-1.3-5.9h-7.2l-1.3,5.9h-8.8l9.1-35.2h9.4l8.9,35.2s-8.8,0-8.8,0ZM111.4,16.1l-1.9,9.9h3.8l-1.8-9.9h0Z"/>
  <path class="st1" d="M136.8,4.4v15.6l6.3-15.6h8.3v35.2h-8.8v-15.5l-6.3,15.5h-8.3V4.4h8.8Z"/>
  <path class="st1" d="M161.3,21h-6.3l3.8-16.6h9l-6.5,16.6Z"/>
  <path class="st1" d="M175.5,11.1c3.4,0,6.1.8,7.9,2.4,1.8,1.6,2.8,3.9,2.8,7.1h-8.2c0-.9-.2-1.6-.7-2s-1-.6-1.6-.6-1,.1-1.3.4-.5.7-.5,1.2.3,1.1.9,1.6c.6.5,1.4.9,2.3,1.2.9.3,2,.8,3.1,1.3s2.1,1.1,3.1,1.6c.9.6,1.7,1.4,2.3,2.5s.9,2.3.9,3.7c0,2.8-.9,4.9-2.7,6.5-1.8,1.5-4.4,2.3-7.8,2.3s-6-.9-7.9-2.6c-1.9-1.7-2.9-4.1-2.9-7.2h8.3c0,1.8.8,2.7,2.5,2.7s1.1,0,1.5-.4c.4-.3.6-.7.6-1.3s-.4-1.2-1.3-1.7c-.9-.5-1.9-1-3.1-1.4-1.2-.4-2.5-1-3.7-1.6s-2.3-1.5-3.1-2.7c-.9-1.2-1.3-2.6-1.3-4.3,0-2.6.9-4.7,2.7-6.3s4.2-2.3,7.2-2.3h0Z"/>
  <path class="st0" d="M213.4,39.6h-11.7V4.4h11.7c3.5,0,6.3,1.2,8.5,3.5,2.1,2.3,3.2,5.6,3.2,9.7v9c0,4.2-1.1,7.4-3.2,9.6-2.1,2.3-4.9,3.4-8.5,3.4ZM212.3,12.9h-1.8v18.3h1.8c1.2,0,2.1-.3,2.9-.9.8-.6,1.1-1.9,1.1-3.8v-8.8c0-1.9-.4-3.2-1.1-3.8-.7-.6-1.7-1-2.9-1Z"/>
  <path class="st1" d="M241.4,30.7h8.3v.2c0,2.6-.9,4.8-2.8,6.6-1.9,1.7-4.4,2.6-7.6,2.6s-5.9-1-7.7-2.9c-1.8-2-2.8-4.6-2.8-8v-6.9c0-3.4.9-6.1,2.8-8.1,1.8-2,4.4-3,7.7-3s5.9.9,7.7,2.8c1.8,1.9,2.8,4.5,2.8,7.9v6.1h-12.6v2.9c0,1.5.7,2.2,2.1,2.2s2.1-.6,2.1-1.9v-.7.2ZM237.1,20.4v2h4.3v-2c0-1.5-.7-2.3-2.1-2.3s-2.1.8-2.1,2.3h0Z"/>
  <path class="st1" d="M258.6,39.6l-7.3-28h8.8l3.1,15.7,3-15.7h8.8l-7.4,28h-9Z"/>
  <path class="st0" d="M33.9,99.4h-8.8v-35.2h11.6c3.5,0,6.3,1.2,8.4,3.5,2.1,2.3,3.2,5.6,3.2,9.7v1.4c0,4.2-1.1,7.4-3.2,9.6-2.1,2.3-4.9,3.4-8.4,3.4h-2.7v7.5h-.1ZM35.5,72.7h-1.6v10.8h1.6c2.7,0,4.1-1.6,4.1-4.7v-1.3c0-1.9-.4-3.2-1.1-3.8-.8-.6-1.7-1-2.9-1h0Z"/>
  <path class="st0" d="M61.3,99.4h-8.8v-35.2h11.5c3.5,0,6.3,1.2,8.5,3.5,2.1,2.3,3.2,5.6,3.2,9.7v.9c0,4.9-1.5,8.6-4.5,10.9l4.2,10.2h-9.5l-2.7-8h-1.8v8h0ZM62.9,72.7h-1.6v10.3h1.6c1.2,0,2.1-.3,2.9-.9s1.1-1.9,1.1-3.8v-.8c0-1.9-.4-3.2-1.1-3.8-.7-.6-1.7-1-2.9-1Z"/>
  <path class="st0" d="M117.8,64.2h8.8v23.7c0,3.6-1.1,6.5-3.3,8.7-2.2,2.3-5,3.4-8.4,3.4s-6.2-1.1-8.4-3.4c-2.2-2.3-3.3-5.2-3.3-8.7v-1.6h8.8v1.9c0,2.2,1,3.3,2.9,3.3s2.9-1.1,2.9-3.3v-24Z"/>
  <path class="st0" d="M143.4,90.5h8.3v.2c0,2.6-.9,4.8-2.8,6.6-1.9,1.7-4.4,2.6-7.6,2.6s-5.9-1-7.7-2.9c-1.8-2-2.8-4.6-2.8-8v-6.9c0-3.4.9-6.1,2.8-8.1,1.8-2,4.4-3,7.7-3s5.9.9,7.7,2.8,2.8,4.5,2.8,7.9v6.1h-12.6v2.9c0,1.5.7,2.2,2.1,2.2s2.1-.6,2.1-1.9v-.7.2ZM139.1,80.2v2h4.3v-2c0-1.5-.7-2.3-2.1-2.3s-2.1.8-2.1,2.3h0Z"/>
  <path class="st0" d="M167.2,81.2v-1.6c0-1.9-.8-2.7-2.4-2.7s-2.4.9-2.4,2.7v10.6c0,1.1.2,1.9.6,2.3.4.3,1,.6,1.8.6s1.3-.2,1.8-.6c.4-.3.6-1.1.6-2.3v-1.9h7.3v1.7c0,3-.9,5.4-2.7,7.3-1.9,1.9-4.2,2.8-7,2.8s-5.2-.9-7-2.8c-1.9-1.9-2.7-4.3-2.7-7.3v-10.1c0-3,.9-5.4,2.7-7.2,1.9-1.9,4.2-2.8,7-2.8s5.1.9,7,2.8,2.7,4.3,2.7,7.2v1.3h-7.5.2,0Z"/>
  <path class="st0" d="M178,78.9v-7c2,0,3.4-.4,4.1-1.3.7-.9,1-2.6,1-5h5.8v5.8h4.1v7.5h-4.1v11.2c0,1.9,1.4,2.6,4.1,2.1v7.5c-4.5.5-7.6-.2-9.5-2s-2.9-4.7-2.9-8.5v-10.2h-2.6Z"/>
  <path class="st0" d="M203.9,91.4c1,1,1.5,2.2,1.5,3.5s-.5,2.5-1.5,3.5-2.2,1.4-3.5,1.4-2.5-.5-3.5-1.4c-1-1-1.4-2.1-1.4-3.5s.5-2.5,1.4-3.5c1-1,2.1-1.5,3.5-1.5s2.5.5,3.5,1.5Z"/>
  <path class="st0" d="M89.1,96.9c-3.3,0-5.9-1-7.8-3-1.8-2-2.8-4.7-2.8-8.1v-6.9c0-3.4.9-6,2.8-8s4.4-2.9,7.7-2.9,5.8,1,7.7,3c1.9,2,2.8,4.6,2.8,8v6.9c0,3.4-.9,6.1-2.8,8.1s-4.4,3-7.7,3h.1ZM89.1,75.5c-1.4,0-2.1.8-2.1,2.3v9.2c0,1.6.7,2.3,2.1,2.3s1.1-.2,1.5-.5c.4-.4.6-1,.6-1.8v-9.2c0-1.6-.7-2.3-2.1-2.3Z"/>
</svg>